<svg width="36" height="54" viewBox="0 0 36 54" fill="none" xmlns="http://www.w3.org/2000/svg">
<g clip-path="url(#clip0_115_353)">
<path d="M8.84659 54C13.728 54 17.6896 49.968 17.6896 45V36H8.84659C3.96523 36 0.00354004 40.032 0.00354004 45C0.00354004 49.968 3.96523 54 8.84659 54Z" fill="#0ACF83"/>
<path d="M0.00354004 27C0.00354004 22.032 3.96523 18 8.84659 18H17.6896V36H8.84659C3.96523 36 0.00354004 31.968 0.00354004 27Z" fill="#A259FF"/>
<path d="M0.0050354 8.99999C0.0050354 4.032 3.96672 0 8.84809 0H17.6911V18H8.84809C3.96672 18 0.0050354 13.968 0.0050354 8.99999Z" fill="#F24E1E"/>
<path d="M17.6897 0H26.5327C31.4141 0 35.3758 4.032 35.3758 8.99999C35.3758 13.968 31.4141 18 26.5327 18H17.6897V0Z" fill="#FF7262"/>
<path d="M35.3758 27C35.3758 31.968 31.4141 36 26.5327 36C21.6514 36 17.6897 31.968 17.6897 27C17.6897 22.032 21.6514 18 26.5327 18C31.4141 18 35.3758 22.032 35.3758 27Z" fill="#1ABCFE"/>
</g>
<defs>
<clipPath id="clip0_115_353">
<rect width="35.3793" height="54" fill="white"/>
</clipPath>
</defs>
</svg>
